<?xml version="1.0" encoding="utf-8"?>
<!-- Generator: Adobe Illustrator 23.0.2, SVG Export Plug-In . SVG Version: 6.00 Build 0)  -->
<svg version="1.1" id="Layer_1" xmlns="http://www.w3.org/2000/svg" xmlns:xlink="http://www.w3.org/1999/xlink" x="0px" y="0px"
	 viewBox="0 0 264 280" enable-background="new 0 0 264 280" xml:space="preserve">
<desc>Created with getavataaars.com</desc>
<g>
	<g transform="translate(-825.000000, -1100.000000)">
		<g transform="translate(825.000000, 1100.000000)">
			<g id="Mask">
			</g>
			<g>
				<g id="Avataaar">
					<g id="Body" transform="translate(32.000000, 36.000000)">
						<g>
							<path fill-rule="evenodd" clip-rule="evenodd" fill="#D0C6AC" d="M124,144.61V163h4l0,0c39.76,0,72,32.24,72,72v9H0v-9
								c0-39.76,32.24-72,72-72l0,0h4v-18.39c-17.24-8.19-29.63-24.92-31.69-44.73C38.48,99.06,34,94.05,34,88V74
								c0-5.95,4.32-10.88,10-11.83V56l0,0c0-30.93,25.07-56,56-56l0,0l0,0c30.93,0,56,25.07,56,56v6.17c5.68,0.95,10,5.89,10,11.83
								v14c0,6.05-4.48,11.06-10.31,11.88C153.63,119.69,141.24,136.42,124,144.61z"/>
						</g>
						<defs>
							<filter id="Adobe_OpacityMaskFilter" filterUnits="userSpaceOnUse" x="0" y="0" width="264" height="280">
								<feColorMatrix  type="matrix" values="1 0 0 0 0  0 1 0 0 0  0 0 1 0 0  0 0 0 1 0"/>
							</filter>
						</defs>
						<mask maskUnits="userSpaceOnUse" x="0" y="0" width="264" height="280" id="mask-6_1_">
							<g filter="url(#Adobe_OpacityMaskFilter)">
								<path id="path-5_1_" fill-rule="evenodd" clip-rule="evenodd" fill="#FFFFFF" d="M124,144.61V163h4l0,0
									c39.76,0,72,32.24,72,72v9H0v-9c0-39.76,32.24-72,72-72l0,0h4v-18.39c-17.24-8.19-29.63-24.92-31.69-44.73
									C38.48,99.06,34,94.05,34,88V74c0-5.95,4.32-10.88,10-11.83V56l0,0c0-30.93,25.07-56,56-56l0,0l0,0c30.93,0,56,25.07,56,56
									v6.17c5.68,0.95,10,5.89,10,11.83v14c0,6.05-4.48,11.06-10.31,11.88C153.63,119.69,141.24,136.42,124,144.61z"/>
							</g>
						</mask>
						<g mask="url(#mask-6_1_)">
							<g id="Color" transform="translate(0.000000, 0.000000)">
								<rect fill-rule="evenodd" clip-rule="evenodd" fill="#EDB98A" width="264" height="280"/>
							</g>
						</g>
						<defs>
							<filter id="Adobe_OpacityMaskFilter_1_" filterUnits="userSpaceOnUse" x="44" y="79" width="112" height="79">
								<feColorMatrix  type="matrix" values="1 0 0 0 0  0 1 0 0 0  0 0 1 0 0  0 0 0 1 0"/>
							</filter>
						</defs>
						<mask maskUnits="userSpaceOnUse" x="44" y="79" width="112" height="79" id="mask-6_2_">
							<g filter="url(#Adobe_OpacityMaskFilter_1_)">
								<path id="path-5_2_" fill-rule="evenodd" clip-rule="evenodd" fill="#FFFFFF" d="M124,144.61V163h4l0,0
									c39.76,0,72,32.24,72,72v9H0v-9c0-39.76,32.24-72,72-72l0,0h4v-18.39c-17.24-8.19-29.63-24.92-31.69-44.73
									C38.48,99.06,34,94.05,34,88V74c0-5.95,4.32-10.88,10-11.83V56l0,0c0-30.93,25.07-56,56-56l0,0l0,0c30.93,0,56,25.07,56,56
									v6.17c5.68,0.95,10,5.89,10,11.83v14c0,6.05-4.48,11.06-10.31,11.88C153.63,119.69,141.24,136.42,124,144.61z"/>
							</g>
						</mask>
						<path id="Neck-Shadow" mask="url(#mask-6_2_)" fill-rule="evenodd" clip-rule="evenodd" fill-opacity="0.1" d="M156,79v23
							c0,30.93-25.07,56-56,56s-56-25.07-56-56V79v15c0,30.93,25.07,56,56,56s56-25.07,56-56V79z"/>
					</g>
					<g transform="translate(0.000000, 170.000000)">
						<g id="Hoodie">
							<path fill-rule="evenodd" clip-rule="evenodd" fill="#B7C1DB" d="M108,13.07c-17.92,2.01-31.72,7.48-32,21.57
								C50.15,45.57,32,71.16,32,101l0,0v9h200v-9c0-29.83-18.15-55.43-44-66.35c-0.28-14.09-14.08-19.57-32-21.57V32l0,0
								c0,13.25-10.75,24-24,24l0,0c-13.25,0-24-10.75-24-24V13.07z"/>
						</g>
						<defs>
							<filter id="Adobe_OpacityMaskFilter_2_" filterUnits="userSpaceOnUse" x="0" y="0" width="264" height="110">
								<feColorMatrix  type="matrix" values="1 0 0 0 0  0 1 0 0 0  0 0 1 0 0  0 0 0 1 0"/>
							</filter>
						</defs>
						<mask maskUnits="userSpaceOnUse" x="0" y="0" width="264" height="110" id="react-mask-6063131_1_">
							<g filter="url(#Adobe_OpacityMaskFilter_2_)">
								<path id="react-path-6063130_1_" fill-rule="evenodd" clip-rule="evenodd" fill="#FFFFFF" d="M108,13.07
									c-17.92,2.01-31.72,7.48-32,21.57C50.15,45.57,32,71.16,32,101l0,0v9h200v-9c0-29.83-18.15-55.43-44-66.35
									c-0.28-14.09-14.08-19.57-32-21.57V32l0,0c0,13.25-10.75,24-24,24l0,0c-13.25,0-24-10.75-24-24V13.07z"/>
							</g>
						</mask>
						<g mask="url(#react-mask-6063131_1_)">
							<rect fill-rule="evenodd" clip-rule="evenodd" fill="#FFFFFF" width="264" height="110"/>
						</g>
						<defs>
							<filter id="Adobe_OpacityMaskFilter_3_" filterUnits="userSpaceOnUse" x="95" y="58.15" width="74" height="51.85">
								<feColorMatrix  type="matrix" values="1 0 0 0 0  0 1 0 0 0  0 0 1 0 0  0 0 0 1 0"/>
							</filter>
						</defs>
						<mask maskUnits="userSpaceOnUse" x="95" y="58.15" width="74" height="51.85" id="react-mask-6063131_2_">
							<g filter="url(#Adobe_OpacityMaskFilter_3_)">
								<path id="react-path-6063130_2_" fill-rule="evenodd" clip-rule="evenodd" fill="#FFFFFF" d="M108,13.07
									c-17.92,2.01-31.72,7.48-32,21.57C50.15,45.57,32,71.16,32,101l0,0v9h200v-9c0-29.83-18.15-55.43-44-66.35
									c-0.28-14.09-14.08-19.57-32-21.57V32l0,0c0,13.25-10.75,24-24,24l0,0c-13.25,0-24-10.75-24-24V13.07z"/>
							</g>
						</mask>
						<path id="Straps" mask="url(#react-mask-6063131_2_)" fill-rule="evenodd" clip-rule="evenodd" fill="#F4F4F4" d="M102,61.74
							V110h-7V58.15C97.2,59.46,99.55,60.66,102,61.74z M169,58.15V98.5c0,1.93-1.57,3.5-3.5,3.5s-3.5-1.57-3.5-3.5V61.74
							C164.45,60.66,166.8,59.46,169,58.15z"/>
						<defs>
							<filter id="Adobe_OpacityMaskFilter_4_" filterUnits="userSpaceOnUse" x="65.5" y="12.72" width="133" height="55.28">
								<feColorMatrix  type="matrix" values="1 0 0 0 0  0 1 0 0 0  0 0 1 0 0  0 0 0 1 0"/>
							</filter>
						</defs>
						<mask maskUnits="userSpaceOnUse" x="65.5" y="12.72" width="133" height="55.28" id="react-mask-6063131_3_">
							<g filter="url(#Adobe_OpacityMaskFilter_4_)">
								<path id="react-path-6063130_3_" fill-rule="evenodd" clip-rule="evenodd" fill="#FFFFFF" d="M108,13.07
									c-17.92,2.01-31.72,7.48-32,21.57C50.15,45.57,32,71.16,32,101l0,0v9h200v-9c0-29.83-18.15-55.43-44-66.35
									c-0.28-14.09-14.08-19.57-32-21.57V32l0,0c0,13.25-10.75,24-24,24l0,0c-13.25,0-24-10.75-24-24V13.07z"/>
							</g>
						</mask>
						<path id="Shadow" mask="url(#react-mask-6063131_3_)" fill-rule="evenodd" clip-rule="evenodd" fill-opacity="0.16" d="
							M90.96,12.72C75.91,15.57,65.5,21.24,65.5,32.31C65.5,52.02,98.54,68,132,68s66.5-15.98,66.5-35.69
							c0-11.06-10.41-16.74-25.46-19.58c9.09,3.35,14.96,8.98,14.96,18.35C188,51.47,160.18,68,132,68S76,51.47,76,31.08
							C76,21.71,81.88,16.07,90.96,12.72z"/>
					</g>
					<g id="Face" transform="translate(76.000000, 82.000000)">
						<g transform="translate(2.000000, 52.000000)">
							<path id="Mouth" fill-rule="evenodd" clip-rule="evenodd" fill-opacity="0.7" d="M40,15c0,7.73,6.27,14,14,14l0,0
								c7.73,0,14-6.27,14-14"/>
						</g>
						<g transform="translate(28.000000, 40.000000)">
							<path id="Nose" fill-rule="evenodd" clip-rule="evenodd" fill-opacity="0.16" d="M16,8c0,4.42,5.37,8,12,8l0,0
								c6.63,0,12-3.58,12-8"/>
						</g>
						<g transform="translate(0.000000, 8.000000)">
							<circle id="Eye" fill-rule="evenodd" clip-rule="evenodd" fill-opacity="0.6" cx="30" cy="22" r="6"/>
							<circle fill-rule="evenodd" clip-rule="evenodd" fill-opacity="0.6" cx="82" cy="22" r="6"/>
						</g>
						<g>
							<path id="Eyebrow" fill-rule="evenodd" clip-rule="evenodd" fill-opacity="0.6" d="M26.55,6.15
								c-5.81,0.27-15.2,4.49-14.95,10.34c0.01,0.19,0.29,0.28,0.43,0.13c2.75-2.96,22.32-5.95,29.2-4.37
								c0.63,0.15,1.11-0.48,0.71-0.93C38.51,7.48,31.75,5.9,26.55,6.15"/>
							<path fill-rule="evenodd" clip-rule="evenodd" fill-opacity="0.6" d="M86.45,6.15c5.81,0.27,15.2,4.49,14.95,10.34
								c-0.01,0.19-0.29,0.28-0.43,0.13c-2.75-2.96-22.32-5.95-29.2-4.37c-0.63,0.15-1.11-0.48-0.71-0.93
								C74.49,7.48,81.25,5.9,86.45,6.15"/>
						</g>
					</g>
					<g id="Top">
						<defs>
							<filter id="Adobe_OpacityMaskFilter_5_" filterUnits="userSpaceOnUse" x="-1" y="0" width="264" height="280">
								<feColorMatrix  type="matrix" values="1 0 0 0 0  0 1 0 0 0  0 0 1 0 0  0 0 0 1 0"/>
							</filter>
						</defs>
						<mask maskUnits="userSpaceOnUse" x="-1" y="0" width="264" height="280" id="react-mask-6063134_1_">
							<g filter="url(#Adobe_OpacityMaskFilter_5_)">
								<rect id="react-path-6063136_1_" fill-rule="evenodd" clip-rule="evenodd" fill="#FFFFFF" width="264" height="280"/>
							</g>
						</mask>
						<g mask="url(#react-mask-6063134_1_)">
							<g transform="translate(-1.000000, 0.000000)">
								<g id="Short-Hair">
									<path fill-rule="evenodd" clip-rule="evenodd" fill="#28354B" d="M94.25,52.02c0.12-0.05-0.18-0.08-0.92-0.06
										C94.23,51.96,94.53,51.98,94.25,52.02 M86.12,36.3C86.11,36.28,86.13,36.45,86.12,36.3 M193.77,70.77
										c-0.26-3.32-0.73-6.61-1.52-9.85c-0.62-2.58-1.48-5.03-2.49-7.49c-0.61-1.48-2.03-3.52-2.2-5.13
										c-0.16-1.58,1.07-3.33,1.33-5.16c0.26-1.79,0.21-3.67-0.16-5.44c-0.83-4.02-3.59-7.76-7.86-8.81
										c-0.95-0.23-2.96,0.05-3.64-0.5c-0.77-0.64-1.31-2.8-2.01-3.67c-1.99-2.48-5.09-4.07-8.37-3.51
										c-2.41,0.41-1.03,0.91-2.83-0.51c-1-0.79-1.76-1.99-2.73-2.85c-1.47-1.28-3.15-2.38-4.89-3.28
										c-4.56-2.36-9.75-4.07-14.84-4.91c-9.29-1.52-19.2-0.2-28.2,2.22c-4.48,1.2-8.99,2.73-13.15,4.74
										c-1.78,0.86-2.81,1.58-4.67,1.81c-2.93,0.36-5.41,0.34-8.18,1.58c-8.54,3.82-12.38,12.69-9.06,21.17
										c0.67,1.71,1.57,3.21,2.82,4.58c1.52,1.68,2.07,1.35,0.76,3.28c-1.96,2.89-3.61,5.97-4.95,9.17
										c-3.53,8.4-4.12,17.86-3.89,26.82c0.08,3.14,0.21,6.31,0.71,9.42c0.21,1.34,0.27,3.87,1.28,4.87
										c0.51,0.51,1.24,0.79,1.97,0.59c1.71-0.47,1.12-1.74,1.16-2.91c0.2-5.88-0.07-11.09,1.33-16.9
										c1.03-4.29,2.76-8.19,4.99-12.04c2.84-4.88,5.9-9.17,9.81-13.36c0.92-0.98,1.12-1.4,2.35-1.47c0.93-0.05,2.3,0.58,3.2,0.81
										c2,0.49,4,0.97,6.03,1.3c3.74,0.6,7.44,0.64,11.22,0.53c7.43-0.23,14.88-0.75,22.08-2.62c4.78-1.24,9.02-3.47,13.6-5.1
										c0.08-0.03,1.23-0.85,1.43-0.81c0.28,0.05,1.98,1.83,2.26,2.05c2.23,1.75,4.67,2.48,7.07,3.83
										c2.96,1.67,0.09-0.72,1.73,1.36c0.48,0.6,0.72,1.73,1.1,2.41c1.22,2.18,2.91,4.1,4.93,5.62c1.96,1.47,4.89,2.18,5.89,4.1
										c0.77,1.48,1.03,3.48,1.65,5.06c1.63,4.14,3.78,7.99,5.93,11.89c1.73,3.14,3.63,5.88,3.82,9.47
										c0.07,1.25-1.12,8.74,1.77,6.46c0.43-0.34,1.35-4.16,1.54-4.8c0.77-2.63,1.05-5.38,1.39-8.09
										C193.99,81.3,194.22,76.18,193.77,70.77"/>
								</g>
								<defs>
									<filter id="Adobe_OpacityMaskFilter_6_" filterUnits="userSpaceOnUse" x="0" y="0" width="264" height="280">
										<feColorMatrix  type="matrix" values="1 0 0 0 0  0 1 0 0 0  0 0 1 0 0  0 0 0 1 0"/>
									</filter>
								</defs>
								<mask maskUnits="userSpaceOnUse" x="0" y="0" width="264" height="280" id="react-mask-6063133_1_">
									<g filter="url(#Adobe_OpacityMaskFilter_6_)">
										<path id="react-path-6063135_1_" fill-rule="evenodd" clip-rule="evenodd" fill="#FFFFFF" d="M94.25,52.02
											c0.12-0.05-0.18-0.08-0.92-0.06C94.23,51.96,94.53,51.98,94.25,52.02 M86.12,36.3C86.11,36.28,86.13,36.45,86.12,36.3
											 M193.77,70.77c-0.26-3.32-0.73-6.61-1.52-9.85c-0.62-2.58-1.48-5.03-2.49-7.49c-0.61-1.48-2.03-3.52-2.2-5.13
											c-0.16-1.58,1.07-3.33,1.33-5.16c0.26-1.79,0.21-3.67-0.16-5.44c-0.83-4.02-3.59-7.76-7.86-8.81
											c-0.95-0.23-2.96,0.05-3.64-0.5c-0.77-0.64-1.31-2.8-2.01-3.67c-1.99-2.48-5.09-4.07-8.37-3.51
											c-2.41,0.41-1.03,0.91-2.83-0.51c-1-0.79-1.76-1.99-2.73-2.85c-1.47-1.28-3.15-2.38-4.89-3.28
											c-4.56-2.36-9.75-4.07-14.84-4.91c-9.29-1.52-19.2-0.2-28.2,2.22c-4.48,1.2-8.99,2.73-13.15,4.74
											c-1.78,0.86-2.81,1.58-4.67,1.81c-2.93,0.36-5.41,0.34-8.18,1.58c-8.54,3.82-12.38,12.69-9.06,21.17
											c0.67,1.71,1.57,3.21,2.82,4.58c1.52,1.68,2.07,1.35,0.76,3.28c-1.96,2.89-3.61,5.97-4.95,9.17
											c-3.53,8.4-4.12,17.86-3.89,26.82c0.08,3.14,0.21,6.31,0.71,9.42c0.21,1.34,0.27,3.87,1.28,4.87
											c0.51,0.51,1.24,0.79,1.97,0.59c1.71-0.47,1.12-1.74,1.16-2.91c0.2-5.88-0.07-11.09,1.33-16.9
											c1.03-4.29,2.76-8.19,4.99-12.04c2.84-4.88,5.9-9.17,9.81-13.36c0.92-0.98,1.12-1.4,2.35-1.47
											c0.93-0.05,2.3,0.58,3.2,0.81c2,0.49,4,0.97,6.03,1.3c3.74,0.6,7.44,0.64,11.22,0.53c7.43-0.23,14.88-0.75,22.08-2.62
											c4.78-1.24,9.02-3.47,13.6-5.1c0.08-0.03,1.23-0.85,1.43-0.81c0.28,0.05,1.98,1.83,2.26,2.05
											c2.23,1.75,4.67,2.48,7.07,3.83c2.96,1.67,0.09-0.72,1.73,1.36c0.48,0.6,0.72,1.73,1.1,2.41c1.22,2.18,2.91,4.1,4.93,5.62
											c1.96,1.47,4.89,2.18,5.89,4.1c0.77,1.48,1.03,3.48,1.65,5.06c1.63,4.14,3.78,7.99,5.93,11.89
											c1.73,3.14,3.63,5.88,3.82,9.47c0.07,1.25-1.12,8.74,1.77,6.46c0.43-0.34,1.35-4.16,1.54-4.8
											c0.77-2.63,1.05-5.38,1.39-8.09C193.99,81.3,194.22,76.18,193.77,70.77"/>
									</g>
								</mask>
								<g mask="url(#react-mask-6063133_1_)">
									<g transform="translate(0.000000, 0.000000) ">
										<rect fill-rule="evenodd" clip-rule="evenodd" fill="#2C1B18" width="264" height="280"/>
									</g>
								</g>
								<g transform="translate(62.000000, 85.000000)">
									<g id="Wayfarers" transform="translate(6.000000, 7.000000)">
										<path id="Left" fill="#252C2F" d="M34,41h-2.76C17.31,41,9,33.34,9,20.5C9,10.13,10.82,0,32.53,0h2.94
											C57.18,0,59,10.13,59,20.5C59,32.57,48.72,41,34,41z M32.39,6C13,6,13,12.84,13,21.5C13,28.57,16.12,37,30.97,37H34
											c12.36,0,21-6.37,21-15.5C55,12.84,55,6,35.61,6H32.39z"/>
										<path id="Right" fill="#252C2F" d="M96,41h-2.76C79.31,41,71,33.34,71,20.5C71,10.13,72.82,0,94.53,0h2.94
											C119.18,0,121,10.13,121,20.5C121,32.57,110.72,41,96,41z M94.39,6C75,6,75,12.84,75,21.5C75,28.57,78.12,37,92.97,37H96
											c12.36,0,21-6.37,21-15.5C117,12.84,117,6,97.61,6H94.39z"/>
										<path id="Stuff" fill="#252C2F" d="M2.95,5.77C3.65,5.1,11.21,0,32.5,0c17.85,0,21.63,1.85,27.35,4.65l0.42,0.21
											c0.4,0.14,2.43,0.83,4.81,0.91c2.17-0.09,4.02-0.68,4.56-0.87C76.17,1.72,82.56,0,97.5,0c21.29,0,28.85,5.1,29.55,5.77
											c1.63,0,2.95,1.29,2.95,2.89v2.89c0,1.6-1.32,2.89-2.95,2.89c0,0-6.9,0-6.9,2.89s-1.96-4.18-1.96-5.77V8.73
											c-3.6-1.38-10.05-3.95-20.68-3.95c-11.84,0-17.74,2.1-22.8,4.18l0.06,0.14l0,1.99l-2.22,5.35l-2.74-1.08
											c-0.24-0.1-0.77-0.27-1.5-0.45c-2.04-0.5-4.14-0.66-5.99-0.28c-0.68,0.14-1.31,0.35-1.89,0.63l-2.64,1.29l-2.64-5.16
											l0.12-2.29l0.08-0.19c-4.36-2.03-8.39-4.12-22.82-4.12c-10.63,0-17.08,2.57-20.68,3.95v2.81c0,1.6-2.95,8.66-2.95,5.77
											s-5.91-2.89-5.91-2.89C1.32,14.43,0,13.14,0,11.54V8.66C0,7.06,1.32,5.77,2.95,5.77z"/>
									</g>
								</g>
							</g>
						</g>
					</g>
				</g>
			</g>
		</g>
	</g>
</g>
</svg>
